<?xml version="1.0" encoding="UTF-8"?>
<svg version="1.1" xmlns="http://www.w3.org/2000/svg" width="611" height="604">
<path d="M0 0 C201.63 0 403.26 0 611 0 C611 199.32 611 398.64 611 604 C409.37 604 207.74 604 0 604 C0 404.68 0 205.36 0 0 Z " fill="#0D0F2A" transform="translate(0,0)"/>
<path d="M0 0 C35.31 0 70.62 0 107 0 C110.63 7.26 114.26 14.52 118 22 C121.62151109 28.91938195 121.62151109 28.91938195 125.26953125 35.82421875 C128.55275244 42.02885677 131.77399581 48.26547991 135 54.5 C138.97557002 62.17972837 142.96124765 69.85329555 147 77.5 C151.65778401 86.31873773 156.24302091 95.17455321 160.828125 104.03125 C164.19612542 110.53295516 167.58029083 117.02535064 171 123.5 C175.65273235 132.30917325 180.23379301 141.15498024 184.81274414 150.00268555 C188.68667078 157.48295122 192.58445422 164.94978386 196.54101562 172.38671875 C200.15121605 179.20235934 203.54662464 186.09324928 207 193 C207.33 131.62 207.66 70.24 208 7 C201.07 7 194.14 7 187 7 C187 5.02 187 3.04 187 1 C204.16 1 221.32 1 239 1 C239 2.98 239 4.96 239 7 C232.07 7 225.14 7 218 7 C218 94.12 218 181.24 218 271 C200.18 271 182.36 271 164 271 C150.45863815 246.17416995 150.45863815 246.17416995 146 237.5 C142.13293113 230.03106183 138.17945674 222.61881424 134.125 215.25 C128.9955538 205.92250704 124.08642216 196.49084399 119.21142578 187.02832031 C115.56435203 179.96707155 111.83430194 172.96120593 108 166 C102.90808074 156.75557974 98.04195399 147.4047988 93.20874023 138.02294922 C89.58394376 131.00467323 85.8758418 124.0424637 82.0625 117.125 C77.05499451 108.03880053 72.2743858 98.84484089 67.53302002 89.61828613 C62.98260758 80.76864563 58.31124622 71.99672158 53.50805664 63.28125 C46.0422638 49.68369723 38.93687253 35.87374506 32 22 C31.67 101.53 31.34 181.06 31 263 C38.26 263 45.52 263 53 263 C53 265.64 53 268.28 53 271 C35.51 271 18.02 271 0 271 C0 268.36 0 265.72 0 263 C6.93 263 13.86 263 21 263 C21 178.85 21 94.7 21 8 C14.07 8 7.14 8 0 8 C0 5.36 0 2.72 0 0 Z " fill="#FDFDFD" transform="translate(211,153)"/>
</svg>
